<mxfile host="app.diagrams.net" modified="2022-03-19T15:58:08.925Z" agent="5.0 (Macintosh; Intel Mac OS X 10_15_7) AppleWebKit/537.36 (KHTML, like Gecko) Chrome/99.0.4844.51 Safari/537.36" etag="1Cn0K1pI8sI2-facMx3X" version="17.1.2" type="github">
  <diagram id="3228e29e-7158-1315-38df-8450db1d8a1d" name="Page-1">
    <mxGraphModel dx="1527" dy="822" grid="0" gridSize="10" guides="1" tooltips="1" connect="1" arrows="1" fold="1" page="1" pageScale="1" pageWidth="400" pageHeight="200" background="#EFF1F3" math="0" shadow="0">
      <root>
        <mxCell id="0" />
        <mxCell id="1" parent="0" />
        <mxCell id="ouUYNZe7gnZ8-fLsrpy1-1" value="&lt;font color=&quot;#4a919b&quot; style=&quot;font-size: 15px&quot;&gt;https://xiaobaidebug.top/&amp;nbsp;&amp;nbsp;&lt;/font&gt;&lt;font color=&quot;#535e80&quot;&gt;01.html&lt;/font&gt;" style="text;html=1;strokeColor=none;fillColor=none;align=center;verticalAlign=middle;whiteSpace=wrap;rounded=0;fontSize=15;" parent="1" vertex="1">
          <mxGeometry x="95" y="69" width="218" height="30" as="geometry" />
        </mxCell>
        <mxCell id="ouUYNZe7gnZ8-fLsrpy1-2" value="&lt;font color=&quot;#4a919b&quot; style=&quot;font-size: 15px&quot;&gt;https://xiaobaidebug.top/&amp;nbsp;&amp;nbsp;&lt;/font&gt;&lt;font color=&quot;#535e80&quot;&gt;02.html&lt;/font&gt;" style="text;html=1;strokeColor=none;fillColor=none;align=center;verticalAlign=middle;whiteSpace=wrap;rounded=0;fontSize=15;" parent="1" vertex="1">
          <mxGeometry x="95" y="99" width="218" height="30" as="geometry" />
        </mxCell>
        <mxCell id="ouUYNZe7gnZ8-fLsrpy1-3" value="&lt;font color=&quot;#4a919b&quot; style=&quot;font-size: 15px&quot;&gt;https://xiaobaidebug.top/&amp;nbsp;&amp;nbsp;&lt;/font&gt;&lt;font color=&quot;#535e80&quot;&gt;03.html&lt;/font&gt;" style="text;html=1;strokeColor=none;fillColor=none;align=center;verticalAlign=middle;whiteSpace=wrap;rounded=0;fontSize=15;" parent="1" vertex="1">
          <mxGeometry x="95" y="129" width="218" height="30" as="geometry" />
        </mxCell>
        <mxCell id="ouUYNZe7gnZ8-fLsrpy1-4" value="" style="rounded=1;whiteSpace=wrap;html=1;dashed=1;fontSize=15;fontColor=#4A919B;strokeColor=default;fillColor=none;strokeWidth=2;" parent="1" vertex="1">
          <mxGeometry x="87" y="60" width="175" height="108" as="geometry" />
        </mxCell>
        <mxCell id="ouUYNZe7gnZ8-fLsrpy1-5" value="建索引后前缀区分度太低" style="text;html=1;strokeColor=none;fillColor=none;align=center;verticalAlign=middle;whiteSpace=wrap;rounded=0;dashed=1;fontSize=15;fontColor=#4A919B;" parent="1" vertex="1">
          <mxGeometry x="116" y="23" width="176" height="30" as="geometry" />
        </mxCell>
      </root>
    </mxGraphModel>
  </diagram>
</mxfile>
